<?xml version="1.0" encoding="utf-8"?>
<!-- Generator: Adobe Illustrator 16.0.0, SVG Export Plug-In . SVG Version: 6.00 Build 0)  -->
<!DOCTYPE svg PUBLIC "-//W3C//DTD SVG 1.1//EN" "http://www.w3.org/Graphics/SVG/1.1/DTD/svg11.dtd">
<svg version="1.1" id="Ebene_1" xmlns="http://www.w3.org/2000/svg" xmlns:xlink="http://www.w3.org/1999/xlink" x="0px" y="0px"
	 width="1000px" height="500px" viewBox="0 0 1000 500" enable-background="new 0 0 1000 500" xml:space="preserve">
<rect fill="#FFFFFF" width="1002.333" height="500"/>
<g>
	<g>
		<g>
			<g>
				<g>
					<path id="b1M1fAeUAH" fill="#E52620" d="M293.552,249.998c0,121.676,98.635,220.313,220.312,220.313
						c121.675,0,220.311-98.637,220.311-220.313c0-121.674-98.636-220.31-220.311-220.31
						C392.187,29.688,293.552,128.324,293.552,249.998z M323.935,249.998c0-104.887,85.04-189.927,189.929-189.927
						c104.896,0,189.927,85.04,189.927,189.927c-0.113,104.848-85.081,189.816-189.927,189.928
						C408.974,439.926,323.935,354.895,323.935,249.998z"/>
				</g>
				<g>
					<g>
						<path id="b1M1fAeUAH_1_" fill="#010202" fill-opacity="0" stroke="#010202" stroke-opacity="0" d="M293.552,249.998
							c0,121.676,98.635,220.313,220.312,220.313c121.675,0,220.311-98.637,220.311-220.313c0-121.674-98.636-220.31-220.311-220.31
							C392.187,29.688,293.552,128.324,293.552,249.998z M323.935,249.998c0-104.887,85.04-189.927,189.929-189.927
							c104.896,0,189.927,85.04,189.927,189.927c-0.113,104.848-85.081,189.816-189.927,189.928
							C408.974,439.926,323.935,354.895,323.935,249.998z"/>
					</g>
				</g>
			</g>
			<g>
				<g>
					<path id="h1UhMiXG4C" fill="#FFFFFF" d="M323.935,249.998c0,104.896,85.04,189.928,189.929,189.928
						c104.896,0,189.927-85.031,189.927-189.928c-0.113-104.845-85.081-189.813-189.927-189.927
						C408.974,60.071,323.935,145.111,323.935,249.998z M536.653,386.369c0,1.545,0,9.266,0,23.168h-30.39v-22.791h-22.791v22.791
						h-30.384v-22.791h-22.791v-30.393h22.791v-212.71h-22.791v-30.39h22.791V90.462h30.384v22.791h22.791V90.462h30.39
						c0,13.902,0,21.624,0,23.169c41.743,4.202,72.178,41.452,67.982,83.209c-1.76,17.421-9.488,33.709-21.865,46.095
						c-2.558,2.563-5.299,4.921-8.205,7.063c19.173,14.324,30.461,36.846,30.461,60.775
						C605.026,349.795,575.477,382.467,536.653,386.369z"/>
				</g>
				<g>
					<g>
						<path id="h1UhMiXG4C_1_" fill="#010202" fill-opacity="0" stroke="#010202" stroke-opacity="0" d="M323.935,249.998
							c0,104.896,85.04,189.928,189.929,189.928c104.896,0,189.927-85.031,189.927-189.928
							c-0.113-104.845-85.081-189.813-189.927-189.927C408.974,60.071,323.935,145.111,323.935,249.998z M536.653,386.369
							c0,1.545,0,9.266,0,23.168h-30.39v-22.791h-22.791v22.791h-30.384v-22.791h-22.791v-30.393h22.791v-212.71h-22.791v-30.39
							h22.791V90.462h30.384v22.791h22.791V90.462h30.39c0,13.902,0,21.624,0,23.169c41.743,4.202,72.178,41.452,67.982,83.209
							c-1.76,17.421-9.488,33.709-21.865,46.095c-2.558,2.563-5.299,4.921-8.205,7.063c19.173,14.324,30.461,36.846,30.461,60.775
							C605.026,349.795,575.477,382.467,536.653,386.369z"/>
					</g>
				</g>
			</g>
			<g>
				<g>
					<path id="ek5yyOPpn" fill="#FFFFFF" d="M483.473,143.643v91.165c27.349,0,42.548,0,45.581,0
						c25.178,0,45.583-20.406,45.583-45.583c0-25.176-20.405-45.583-45.583-45.583C522.979,143.643,507.788,143.643,483.473,143.643
						z"/>
				</g>
				<g>
					<g>
						<path id="ek5yyOPpn_1_" fill="#010202" fill-opacity="0" stroke="#010202" stroke-opacity="0" d="M483.473,143.643v91.165
							c27.349,0,42.548,0,45.581,0c25.178,0,45.583-20.406,45.583-45.583c0-25.176-20.405-45.583-45.583-45.583
							C522.979,143.643,507.788,143.643,483.473,143.643z"/>
					</g>
				</g>
			</g>
			<g>
				<g>
					<path id="cXL3kgtqC" fill="#E52620" d="M536.675,113.631c0-1.545,0-9.267,0-23.169h-30.39v22.791h-22.792V90.462h-30.39v22.791
						h-22.792v30.39h22.792v212.71h-22.792v30.393h22.792v22.791h30.39v-22.791h22.792v22.791h30.39c0-13.902,0-21.623,0-23.168
						c41.729-4.182,72.171-41.395,67.988-83.125c-2.114-21.18-13.032-40.496-30.084-53.246c2.913-2.143,5.655-4.5,8.205-7.063
						c14.266-14.23,22.285-33.553,22.265-53.709C605.021,150.21,575.484,117.555,536.675,113.631z M529.075,356.354
						c-3.04,0-18.232,0-45.582,0v-91.162c27.35,0,42.542,0,45.582,0c25.178,0,45.583,20.404,45.583,45.582
						C574.658,335.949,554.253,356.354,529.075,356.354z M483.493,234.808v-91.165c27.35,0,42.542,0,45.582,0
						c25.178,0,45.583,20.406,45.583,45.583c0,25.177-20.405,45.583-45.583,45.583C523.001,234.808,507.802,234.808,483.493,234.808
						z"/>
				</g>
				<g>
					<g>
						<path id="cXL3kgtqC_1_" fill="#010202" fill-opacity="0" stroke="#010202" stroke-opacity="0" d="M536.675,113.631
							c0-1.545,0-9.267,0-23.169h-30.39v22.791h-22.792V90.462h-30.39v22.791h-22.792v30.39h22.792v212.71h-22.792v30.393h22.792
							v22.791h30.39v-22.791h22.792v22.791h30.39c0-13.902,0-21.623,0-23.168c41.729-4.182,72.171-41.395,67.988-83.125
							c-2.114-21.18-13.032-40.496-30.084-53.246c2.913-2.143,5.655-4.5,8.205-7.063c14.266-14.23,22.285-33.553,22.265-53.709
							C605.021,150.21,575.484,117.555,536.675,113.631z M529.075,356.354c-3.04,0-18.232,0-45.582,0v-91.162
							c27.35,0,42.542,0,45.582,0c25.178,0,45.583,20.404,45.583,45.582C574.658,335.949,554.253,356.354,529.075,356.354z
							 M483.493,234.808v-91.165c27.35,0,42.542,0,45.582,0c25.178,0,45.583,20.406,45.583,45.583
							c0,25.177-20.405,45.583-45.583,45.583C523.001,234.808,507.802,234.808,483.493,234.808z"/>
					</g>
				</g>
			</g>
			<g>
				<g>
					<path id="b6DVvDp93" fill="#FFFFFF" d="M483.473,265.191v91.162c27.349,0,42.548,0,45.581,0
						c25.178,0,45.583-20.404,45.583-45.58c0-25.178-20.405-45.582-45.583-45.582C522.979,265.191,507.788,265.191,483.473,265.191z
						"/>
				</g>
				<g>
					<g>
						<path id="b6DVvDp93_1_" fill="#010202" fill-opacity="0" stroke="#010202" stroke-opacity="0" d="M483.473,265.191v91.162
							c27.349,0,42.548,0,45.581,0c25.178,0,45.583-20.404,45.583-45.58c0-25.178-20.405-45.582-45.583-45.582
							C522.979,265.191,507.788,265.191,483.473,265.191z"/>
					</g>
				</g>
			</g>
			<g>
				<g>
					<path id="c21V03uaJG" fill="#231F20" d="M483.473,242.4c-4.188,0-7.593-3.398-7.593-7.592c0-9.117,0-82.048,0-91.165
						c0-4.194,3.404-7.599,7.593-7.599c4.558,0,41.023,0,45.581,0c29.373,0,53.183,23.809,53.183,53.181
						s-23.81,53.175-53.183,53.175C519.938,242.4,488.03,242.4,483.473,242.4z M529.054,227.208
						c20.983,0,37.991-17.007,37.991-37.983c0-20.975-17.008-37.989-37.991-37.989c-2.528,0-15.19,0-37.981,0v75.972
						C513.863,227.208,526.525,227.208,529.054,227.208z"/>
				</g>
				<g>
					<g>
						<path id="c21V03uaJG_1_" fill="#010202" fill-opacity="0" stroke="#010202" stroke-opacity="0" d="M483.473,242.4
							c-4.188,0-7.593-3.398-7.593-7.592c0-9.117,0-82.048,0-91.165c0-4.194,3.404-7.599,7.593-7.599c4.558,0,41.023,0,45.581,0
							c29.373,0,53.183,23.809,53.183,53.181s-23.81,53.175-53.183,53.175C519.938,242.4,488.03,242.4,483.473,242.4z
							 M529.054,227.208c20.983,0,37.991-17.007,37.991-37.983c0-20.975-17.008-37.989-37.991-37.989c-2.528,0-15.19,0-37.981,0
							v75.972C513.863,227.208,526.525,227.208,529.054,227.208z"/>
					</g>
				</g>
			</g>
			<g>
				<g>
					<path id="gEwzJSaJ6" fill="#231F20" d="M483.473,242.4c-4.188,0-7.593-3.398-7.593-7.592c0-9.117,0-82.048,0-91.165
						c0-4.194,3.404-7.599,7.593-7.599c4.558,0,41.023,0,45.581,0c29.373,0,53.183,23.809,53.183,53.181
						s-23.81,53.175-53.183,53.175C519.938,242.4,488.03,242.4,483.473,242.4z M529.054,227.208
						c20.983,0,37.991-17.007,37.991-37.983c0-20.975-17.008-37.989-37.991-37.989c-2.528,0-15.19,0-37.981,0v75.972
						C513.863,227.208,526.525,227.208,529.054,227.208z"/>
				</g>
				<g>
					<g>
						<path id="gEwzJSaJ6_1_" fill="#010202" fill-opacity="0" stroke="#010202" stroke-opacity="0" d="M483.473,242.4
							c-4.188,0-7.593-3.398-7.593-7.592c0-9.117,0-82.048,0-91.165c0-4.194,3.404-7.599,7.593-7.599c4.558,0,41.023,0,45.581,0
							c29.373,0,53.183,23.809,53.183,53.181s-23.81,53.175-53.183,53.175C519.938,242.4,488.03,242.4,483.473,242.4z
							 M529.054,227.208c20.983,0,37.991-17.007,37.991-37.983c0-20.975-17.008-37.989-37.991-37.989c-2.528,0-15.19,0-37.981,0
							v75.972C513.863,227.208,526.525,227.208,529.054,227.208z"/>
					</g>
				</g>
			</g>
			<g>
				<g>
					<path id="bFB2arfbc" fill="#231F20" d="M506.264,417.137c-4.188,0-7.593-3.404-7.593-7.6c0-1.012,0-6.074,0-15.191h-7.599
						c0,9.117,0,14.18,0,15.191c0,4.195-3.405,7.6-7.6,7.6c-3.034,0-27.35,0-30.384,0c-4.195,0-7.6-3.404-7.6-7.6
						c0-1.012,0-6.074,0-15.191c-9.116,0-14.18,0-15.191,0c-4.195,0-7.599-3.404-7.599-7.6c0-3.041,0-27.35,0-30.393
						c0-4.186,3.404-7.59,7.599-7.59c1.011,0,6.075,0,15.191,0V151.236c-9.116,0-14.18,0-15.191,0c-4.195,0-7.599-3.398-7.599-7.593
						c0-3.041,0-27.349,0-30.39c0-4.195,3.404-7.6,7.599-7.6c1.011,0,6.075,0,15.191,0c0-9.116,0-14.18,0-15.191
						c0-4.194,3.405-7.599,7.6-7.599c3.034,0,27.35,0,30.384,0c4.194,0,7.6,3.405,7.6,7.599c0,1.011,0,6.076,0,15.191h7.592
						c0-9.116,0-14.18,0-15.191c0-4.194,3.405-7.599,7.6-7.599c3.042,0,27.35,0,30.39,0c4.196,0,7.6,3.405,7.6,7.599
						c0,1.66,0,14.915,0,16.566c45.383,8.383,75.383,51.963,67.013,97.354c-3.076,16.658-11.139,31.978-23.125,43.951
						c-0.577,0.591-1.168,1.169-1.78,1.723c16.701,15.798,26.188,37.741,26.266,60.718c-0.021,40.291-28.767,74.832-68.373,82.184
						c0,1.658,0,14.92,0,16.58c0,4.195-3.403,7.6-7.6,7.6C530.579,417.137,509.306,417.137,506.264,417.137z M529.054,401.938
						c0-9.344,0-14.531,0-15.568c-0.021-3.918,2.942-7.201,6.838-7.6c37.556-3.775,64.934-37.279,61.15-74.832
						c-1.915-19.025-11.722-36.389-27.027-47.855c-3.347-2.543-3.995-7.307-1.461-10.648c0.436-0.569,0.947-1.075,1.525-1.51
						c2.605-1.923,5.063-4.039,7.35-6.325c26.715-26.687,26.736-69.976,0.05-96.691c-11.168-11.182-25.854-18.147-41.58-19.713
						c-3.888-0.393-6.837-3.654-6.837-7.564c0-1.033,0-6.225,0-15.569h-15.198c0,9.116,0,14.18,0,15.191c0,4.195-3.404,7.6-7.6,7.6
						c-2.279,0-20.513,0-22.791,0c-4.188,0-7.593-3.405-7.593-7.6c0-1.011,0-6.076,0-15.191h-15.199c0,9.116,0,14.18,0,15.191
						c0,4.195-3.397,7.6-7.592,7.6c-1.011,0-6.083,0-15.199,0v15.192c9.116,0,14.188,0,15.199,0c4.195,0,7.592,3.405,7.592,7.599
						c0,21.267,0,191.447,0,212.71c0,4.195-3.397,7.6-7.592,7.6c-1.011,0-6.083,0-15.199,0v15.193c9.116,0,14.188,0,15.199,0
						c4.195,0,7.592,3.404,7.592,7.6c0,1.012,0,6.074,0,15.191h15.199c0-9.117,0-14.18,0-15.191c0-4.195,3.404-7.6,7.593-7.6
						c2.278,0,20.512,0,22.791,0c4.195,0,7.6,3.404,7.6,7.6c0,1.012,0,6.074,0,15.191H529.054z M483.473,363.953
						c-4.188,0-7.593-3.404-7.593-7.6c0-9.115,0-82.047,0-91.162c0-4.188,3.404-7.594,7.593-7.594c4.558,0,41.023,0,45.581,0
						c29.373,0,53.183,23.811,53.183,53.176c0,29.373-23.81,53.18-53.183,53.18C519.938,363.953,488.03,363.953,483.473,363.953z
						 M529.054,348.764c20.983,0,37.991-17.016,37.991-37.99c0-20.977-17.017-37.982-37.991-37.982c-2.528,0-15.19,0-37.981,0
						v75.973C513.863,348.764,526.525,348.764,529.054,348.764z M483.473,242.4c-4.188,0-7.593-3.398-7.593-7.592
						c0-9.117,0-82.048,0-91.165c0-4.194,3.404-7.599,7.593-7.599c4.558,0,41.023,0,45.581,0c29.373,0,53.183,23.809,53.183,53.181
						s-23.81,53.175-53.183,53.175C519.938,242.4,488.03,242.4,483.473,242.4z M529.054,227.208
						c20.983,0,37.991-17.007,37.991-37.983c0-20.975-17.008-37.989-37.991-37.989c-2.528,0-15.19,0-37.981,0v75.972
						C513.863,227.208,526.525,227.208,529.054,227.208z"/>
				</g>
				<g>
					<g>
						<path id="bFB2arfbc_1_" fill="#010202" fill-opacity="0" stroke="#010202" stroke-opacity="0" d="M506.264,417.137
							c-4.188,0-7.593-3.404-7.593-7.6c0-1.012,0-6.074,0-15.191h-7.599c0,9.117,0,14.18,0,15.191c0,4.195-3.405,7.6-7.6,7.6
							c-3.034,0-27.35,0-30.384,0c-4.195,0-7.6-3.404-7.6-7.6c0-1.012,0-6.074,0-15.191c-9.116,0-14.18,0-15.191,0
							c-4.195,0-7.599-3.404-7.599-7.6c0-3.041,0-27.35,0-30.393c0-4.186,3.404-7.59,7.599-7.59c1.011,0,6.075,0,15.191,0V151.236
							c-9.116,0-14.18,0-15.191,0c-4.195,0-7.599-3.398-7.599-7.593c0-3.041,0-27.349,0-30.39c0-4.195,3.404-7.6,7.599-7.6
							c1.011,0,6.075,0,15.191,0c0-9.116,0-14.18,0-15.191c0-4.194,3.405-7.599,7.6-7.599c3.034,0,27.35,0,30.384,0
							c4.194,0,7.6,3.405,7.6,7.599c0,1.011,0,6.076,0,15.191h7.592c0-9.116,0-14.18,0-15.191c0-4.194,3.405-7.599,7.6-7.599
							c3.042,0,27.35,0,30.39,0c4.196,0,7.6,3.405,7.6,7.599c0,1.66,0,14.915,0,16.566c45.383,8.383,75.383,51.963,67.013,97.354
							c-3.076,16.658-11.139,31.978-23.125,43.951c-0.577,0.591-1.168,1.169-1.78,1.723c16.701,15.798,26.188,37.741,26.266,60.718
							c-0.021,40.291-28.767,74.832-68.373,82.184c0,1.658,0,14.92,0,16.58c0,4.195-3.403,7.6-7.6,7.6
							C530.579,417.137,509.306,417.137,506.264,417.137z M529.054,401.938c0-9.344,0-14.531,0-15.568
							c-0.021-3.918,2.942-7.201,6.838-7.6c37.556-3.775,64.934-37.279,61.15-74.832c-1.915-19.025-11.722-36.389-27.027-47.855
							c-3.347-2.543-3.995-7.307-1.461-10.648c0.436-0.569,0.947-1.075,1.525-1.51c2.605-1.923,5.063-4.039,7.35-6.325
							c26.715-26.687,26.736-69.976,0.05-96.691c-11.168-11.182-25.854-18.147-41.58-19.713c-3.888-0.393-6.837-3.654-6.837-7.564
							c0-1.033,0-6.225,0-15.569h-15.198c0,9.116,0,14.18,0,15.191c0,4.195-3.404,7.6-7.6,7.6c-2.279,0-20.513,0-22.791,0
							c-4.188,0-7.593-3.405-7.593-7.6c0-1.011,0-6.076,0-15.191h-15.199c0,9.116,0,14.18,0,15.191c0,4.195-3.397,7.6-7.592,7.6
							c-1.011,0-6.083,0-15.199,0v15.192c9.116,0,14.188,0,15.199,0c4.195,0,7.592,3.405,7.592,7.599c0,21.267,0,191.447,0,212.71
							c0,4.195-3.397,7.6-7.592,7.6c-1.011,0-6.083,0-15.199,0v15.193c9.116,0,14.188,0,15.199,0c4.195,0,7.592,3.404,7.592,7.6
							c0,1.012,0,6.074,0,15.191h15.199c0-9.117,0-14.18,0-15.191c0-4.195,3.404-7.6,7.593-7.6c2.278,0,20.512,0,22.791,0
							c4.195,0,7.6,3.404,7.6,7.6c0,1.012,0,6.074,0,15.191H529.054z M483.473,363.953c-4.188,0-7.593-3.404-7.593-7.6
							c0-9.115,0-82.047,0-91.162c0-4.188,3.404-7.594,7.593-7.594c4.558,0,41.023,0,45.581,0c29.373,0,53.183,23.811,53.183,53.176
							c0,29.373-23.81,53.18-53.183,53.18C519.938,363.953,488.03,363.953,483.473,363.953z M529.054,348.764
							c20.983,0,37.991-17.016,37.991-37.99c0-20.977-17.017-37.982-37.991-37.982c-2.528,0-15.19,0-37.981,0v75.973
							C513.863,348.764,526.525,348.764,529.054,348.764z M483.473,242.4c-4.188,0-7.593-3.398-7.593-7.592
							c0-9.117,0-82.048,0-91.165c0-4.194,3.404-7.599,7.593-7.599c4.558,0,41.023,0,45.581,0c29.373,0,53.183,23.809,53.183,53.181
							s-23.81,53.175-53.183,53.175C519.938,242.4,488.03,242.4,483.473,242.4z M529.054,227.208
							c20.983,0,37.991-17.007,37.991-37.983c0-20.975-17.008-37.989-37.991-37.989c-2.528,0-15.19,0-37.981,0v75.972
							C513.863,227.208,526.525,227.208,529.054,227.208z"/>
					</g>
				</g>
			</g>
			<g>
				<g>
					<path id="b9Y7DDyhU" fill="#231F20" d="M483.473,363.953c-4.188,0-7.593-3.404-7.593-7.6c0-9.115,0-82.047,0-91.162
						c0-4.188,3.404-7.594,7.593-7.594c4.558,0,41.023,0,45.581,0c29.373,0,53.183,23.811,53.183,53.176
						c0,29.373-23.81,53.18-53.183,53.18C519.938,363.953,488.03,363.953,483.473,363.953z M529.054,348.764
						c20.983,0,37.991-17.016,37.991-37.99c0-20.977-17.017-37.982-37.991-37.982c-2.528,0-15.19,0-37.981,0v75.973
						C513.863,348.764,526.525,348.764,529.054,348.764z"/>
				</g>
				<g>
					<g>
						<path id="b9Y7DDyhU_1_" fill="#010202" fill-opacity="0" stroke="#010202" stroke-opacity="0" d="M483.473,363.953
							c-4.188,0-7.593-3.404-7.593-7.6c0-9.115,0-82.047,0-91.162c0-4.188,3.404-7.594,7.593-7.594c4.558,0,41.023,0,45.581,0
							c29.373,0,53.183,23.811,53.183,53.176c0,29.373-23.81,53.18-53.183,53.18C519.938,363.953,488.03,363.953,483.473,363.953z
							 M529.054,348.764c20.983,0,37.991-17.016,37.991-37.99c0-20.977-17.017-37.982-37.991-37.982c-2.528,0-15.19,0-37.981,0
							v75.973C513.863,348.764,526.525,348.764,529.054,348.764z"/>
					</g>
				</g>
			</g>
			<g>
				<g>
					<path id="f1ADkLcrTV" fill="#231F20" d="M483.473,363.953c-4.188,0-7.593-3.404-7.593-7.6c0-9.115,0-82.047,0-91.162
						c0-4.188,3.404-7.594,7.593-7.594c4.558,0,41.023,0,45.581,0c29.373,0,53.183,23.811,53.183,53.176
						c0,29.373-23.81,53.18-53.183,53.18C519.938,363.953,488.03,363.953,483.473,363.953z M529.054,348.764
						c20.983,0,37.991-17.016,37.991-37.99c0-20.977-17.017-37.982-37.991-37.982c-2.528,0-15.19,0-37.981,0v75.973
						C513.863,348.764,526.525,348.764,529.054,348.764z"/>
				</g>
				<g>
					<g>
						<path id="f1ADkLcrTV_1_" fill="#010202" fill-opacity="0" stroke="#010202" stroke-opacity="0" d="M483.473,363.953
							c-4.188,0-7.593-3.404-7.593-7.6c0-9.115,0-82.047,0-91.162c0-4.188,3.404-7.594,7.593-7.594c4.558,0,41.023,0,45.581,0
							c29.373,0,53.183,23.811,53.183,53.176c0,29.373-23.81,53.18-53.183,53.18C519.938,363.953,488.03,363.953,483.473,363.953z
							 M529.054,348.764c20.983,0,37.991-17.016,37.991-37.99c0-20.977-17.017-37.982-37.991-37.982c-2.528,0-15.19,0-37.981,0
							v75.973C513.863,348.764,526.525,348.764,529.054,348.764z"/>
					</g>
				</g>
			</g>
			<g>
				<g>
					<path id="a2vajrsPg" fill="#231F20" d="M285.952,249.998c0-125.876,102.033-227.909,227.911-227.909
						c125.878,0,227.91,102.033,227.91,227.909c-0.143,125.816-102.097,227.77-227.91,227.912
						C387.985,477.91,285.952,375.879,285.952,249.998z M301.144,249.998c0,117.482,95.238,212.721,212.719,212.721
						c117.48,0,212.719-95.238,212.719-212.721c-0.143-117.422-95.288-212.575-212.719-212.717
						C396.382,37.281,301.144,132.519,301.144,249.998z"/>
				</g>
				<g>
					<g>
						<path id="a2vajrsPg_1_" fill="#010202" fill-opacity="0" stroke="#010202" stroke-opacity="0" d="M285.952,249.998
							c0-125.876,102.033-227.909,227.911-227.909c125.878,0,227.91,102.033,227.91,227.909
							c-0.143,125.816-102.097,227.77-227.91,227.912C387.985,477.91,285.952,375.879,285.952,249.998z M301.144,249.998
							c0,117.482,95.238,212.721,212.719,212.721c117.48,0,212.719-95.238,212.719-212.721
							c-0.143-117.422-95.288-212.575-212.719-212.717C396.382,37.281,301.144,132.519,301.144,249.998z"/>
					</g>
				</g>
			</g>
			<g>
				<g>
					<path id="a2c4l37J7b" fill="#231F20" d="M316.343,249.998c0-109.083,88.437-197.519,197.521-197.519
						c109.083,0,197.52,88.437,197.52,197.519c-0.121,109.041-88.479,197.4-197.52,197.521
						C404.779,447.52,316.343,359.084,316.343,249.998z M331.534,249.998c0,100.703,81.628,182.328,182.329,182.328
						c100.7,0,182.328-81.625,182.328-182.328c-0.114-100.643-81.686-182.213-182.328-182.327
						C413.162,67.671,331.534,149.299,331.534,249.998z"/>
				</g>
				<g>
					<g>
						<path id="a2c4l37J7b_1_" fill="#010202" fill-opacity="0" stroke="#010202" stroke-opacity="0" d="M316.343,249.998
							c0-109.083,88.437-197.519,197.521-197.519c109.083,0,197.52,88.437,197.52,197.519
							c-0.121,109.041-88.479,197.4-197.52,197.521C404.779,447.52,316.343,359.084,316.343,249.998z M331.534,249.998
							c0,100.703,81.628,182.328,182.329,182.328c100.7,0,182.328-81.625,182.328-182.328
							c-0.114-100.643-81.686-182.213-182.328-182.327C413.162,67.671,331.534,149.299,331.534,249.998z"/>
					</g>
				</g>
			</g>
		</g>
	</g>
</g>
</svg>
