<?xml version="1.0" encoding="UTF-8" standalone="no"?>
<!DOCTYPE svg PUBLIC "-//W3C//DTD SVG 1.1//EN" "http://www.w3.org/Graphics/SVG/1.1/DTD/svg11.dtd">
<svg version="1.1" xmlns="http://www.w3.org/2000/svg" xmlns:xlink="http://www.w3.org/1999/xlink" preserveAspectRatio="xMidYMid meet" viewBox="0 0 640 640" width="640" height="640"><defs><path d="M10.67 320C10.67 490.84 149.16 629.33 320 629.33C490.84 629.33 629.33 490.84 629.33 320C629.33 149.16 490.84 10.67 320 10.67C149.16 10.67 10.67 149.16 10.67 320ZM53.33 320C53.33 172.73 172.73 53.33 320 53.33C467.28 53.33 586.67 172.73 586.67 320C586.51 467.21 467.21 586.51 320 586.67C172.73 586.67 53.33 467.28 53.33 320Z" id="b1M1fAeUAH"></path><path d="M53.33 320C53.33 467.28 172.73 586.67 320 586.67C467.28 586.67 586.67 467.28 586.67 320C586.51 172.79 467.21 53.49 320 53.33C172.73 53.33 53.33 172.73 53.33 320ZM352 511.47C352 513.64 352 524.48 352 544L309.33 544L309.33 512L277.33 512L277.33 544L234.67 544L234.67 512L202.67 512L202.67 469.33L234.67 469.33L234.67 170.67L202.67 170.67L202.67 128L234.67 128L234.67 96L277.33 96L277.33 128L309.33 128L309.33 96L352 96C352 115.52 352 126.36 352 128.53C410.61 134.43 453.34 186.73 447.45 245.36C444.98 269.82 434.13 292.69 416.75 310.08C413.16 313.68 409.31 316.99 405.23 320C432.15 340.11 448 371.73 448 405.33C448 460.12 406.51 505.99 352 511.47Z" id="h1UhMiXG4C"></path><path d="M277.33 170.67L277.33 298.67C315.73 298.67 337.07 298.67 341.33 298.67C376.68 298.67 405.33 270.02 405.33 234.67C405.33 199.32 376.68 170.67 341.33 170.67C332.8 170.67 311.47 170.67 277.33 170.67Z" id="ek5yyOPpn"></path><path d="M352.03 128.53C352.03 126.36 352.03 115.52 352.03 96L309.36 96L309.36 128L277.36 128L277.36 96L234.69 96L234.69 128L202.69 128L202.69 170.67L234.69 170.67L234.69 469.33L202.69 469.33L202.69 512L234.69 512L234.69 544L277.36 544L277.36 512L309.36 512L309.36 544L352.03 544C352.03 524.48 352.03 513.64 352.03 511.47C410.62 505.6 453.36 453.35 447.49 394.76C444.52 365.02 429.19 337.9 405.25 320C409.34 316.99 413.19 313.68 416.77 310.08C436.8 290.1 448.06 262.97 448.03 234.67C447.99 179.89 406.52 134.04 352.03 128.53ZM341.36 469.33C337.09 469.33 315.76 469.33 277.36 469.33L277.36 341.33C315.76 341.33 337.09 341.33 341.36 341.33C376.71 341.33 405.36 369.98 405.36 405.33C405.36 440.68 376.71 469.33 341.36 469.33ZM277.36 298.67L277.36 170.67C315.76 170.67 337.09 170.67 341.36 170.67C376.71 170.67 405.36 199.32 405.36 234.67C405.36 270.02 376.71 298.67 341.36 298.67C332.83 298.67 311.49 298.67 277.36 298.67Z" id="cXL3kgtqC"></path><path d="M277.33 341.33L277.33 469.33C315.73 469.33 337.07 469.33 341.33 469.33C376.68 469.33 405.33 440.68 405.33 405.33C405.33 369.98 376.68 341.33 341.33 341.33C332.8 341.33 311.47 341.33 277.33 341.33Z" id="b6DVvDp93"></path><path d="M277.33 309.33C271.45 309.33 266.67 304.56 266.67 298.67C266.67 285.87 266.67 183.47 266.67 170.67C266.67 164.78 271.45 160 277.33 160C283.73 160 334.93 160 341.33 160C382.57 160 416 193.43 416 234.67C416 275.91 382.57 309.33 341.33 309.33C328.53 309.33 283.73 309.33 277.33 309.33ZM341.33 288C370.79 288 394.67 264.12 394.67 234.67C394.67 205.22 370.79 181.33 341.33 181.33C337.78 181.33 320 181.33 288 181.33L288 288C320 288 337.78 288 341.33 288Z" id="c21V03uaJG"></path><path d="M277.33 309.33C271.45 309.33 266.67 304.56 266.67 298.67C266.67 285.87 266.67 183.47 266.67 170.67C266.67 164.78 271.45 160 277.33 160C283.73 160 334.93 160 341.33 160C382.57 160 416 193.43 416 234.67C416 275.91 382.57 309.33 341.33 309.33C328.53 309.33 283.73 309.33 277.33 309.33ZM341.33 288C370.79 288 394.67 264.12 394.67 234.67C394.67 205.22 370.79 181.33 341.33 181.33C337.78 181.33 320 181.33 288 181.33L288 288C320 288 337.78 288 341.33 288Z" id="gEwzJSaJ6"></path><path d="M309.33 554.67C303.45 554.67 298.67 549.89 298.67 544C298.67 542.58 298.67 535.47 298.67 522.67L288 522.67C288 535.47 288 542.58 288 544C288 549.89 283.22 554.67 277.33 554.67C273.07 554.67 238.93 554.67 234.67 554.67C228.78 554.67 224 549.89 224 544C224 542.58 224 535.47 224 522.67C211.2 522.67 204.09 522.67 202.67 522.67C196.78 522.67 192 517.89 192 512C192 507.73 192 473.6 192 469.33C192 463.45 196.78 458.67 202.67 458.67C204.09 458.67 211.2 458.67 224 458.67L224 181.33C211.2 181.33 204.09 181.33 202.67 181.33C196.78 181.33 192 176.56 192 170.67C192 166.4 192 132.27 192 128C192 122.11 196.78 117.33 202.67 117.33C204.09 117.33 211.2 117.33 224 117.33C224 104.53 224 97.42 224 96C224 90.11 228.78 85.33 234.67 85.33C238.93 85.33 273.07 85.33 277.33 85.33C283.22 85.33 288 90.11 288 96C288 97.42 288 104.53 288 117.33L298.66 117.33C298.66 104.53 298.66 97.42 298.66 96C298.66 90.11 303.44 85.33 309.33 85.33C313.6 85.33 347.73 85.33 352 85.33C357.89 85.33 362.67 90.11 362.67 96C362.67 98.33 362.67 116.94 362.67 119.26C426.39 131.03 468.51 192.22 456.76 255.95C452.44 279.34 441.12 300.85 424.29 317.66C423.48 318.49 422.65 319.3 421.79 320.08C445.24 342.26 458.56 373.07 458.67 405.33C458.64 461.9 418.28 510.4 362.67 520.72C362.67 523.05 362.67 541.67 362.67 544C362.67 549.89 357.89 554.67 352 554.67C343.47 554.67 313.6 554.67 309.33 554.67ZM341.33 533.33C341.33 520.21 341.33 512.93 341.33 511.47C341.3 505.97 345.46 501.36 350.93 500.8C403.66 495.5 442.1 448.46 436.79 395.73C434.1 369.02 420.33 344.64 398.84 328.54C394.14 324.97 393.23 318.28 396.79 313.59C397.4 312.79 398.12 312.08 398.93 311.47C402.59 308.77 406.04 305.8 409.25 302.59C446.76 265.12 446.79 204.34 409.32 166.83C393.64 151.13 373.02 141.35 350.94 139.15C345.48 138.6 341.34 134.02 341.34 128.53C341.34 127.08 341.34 119.79 341.34 106.67L320 106.67C320 119.47 320 126.58 320 128C320 133.89 315.22 138.67 309.33 138.67C306.13 138.67 280.53 138.67 277.33 138.67C271.45 138.67 266.67 133.89 266.67 128C266.67 126.58 266.67 119.47 266.67 106.67L245.33 106.67C245.33 119.47 245.33 126.58 245.33 128C245.33 133.89 240.56 138.67 234.67 138.67C233.25 138.67 226.13 138.67 213.33 138.67L213.33 160C226.13 160 233.25 160 234.67 160C240.56 160 245.33 164.78 245.33 170.67C245.33 200.53 245.33 439.47 245.33 469.33C245.33 475.22 240.56 480 234.67 480C233.25 480 226.13 480 213.33 480L213.33 501.33C226.13 501.33 233.25 501.33 234.67 501.33C240.56 501.33 245.33 506.11 245.33 512C245.33 513.42 245.33 520.53 245.33 533.33L266.67 533.33C266.67 520.53 266.67 513.42 266.67 512C266.67 506.11 271.45 501.33 277.33 501.33C280.53 501.33 306.13 501.33 309.33 501.33C315.22 501.33 320 506.11 320 512C320 513.42 320 520.53 320 533.33L341.33 533.33ZM277.33 480C271.45 480 266.67 475.22 266.67 469.33C266.67 456.53 266.67 354.13 266.67 341.33C266.67 335.45 271.45 330.67 277.33 330.67C283.73 330.67 334.93 330.67 341.33 330.67C382.57 330.67 416 364.1 416 405.33C416 446.57 382.57 480 341.33 480C328.53 480 283.73 480 277.33 480ZM341.33 458.67C370.79 458.67 394.67 434.78 394.67 405.33C394.67 375.88 370.78 352 341.33 352C337.78 352 320 352 288 352L288 458.67C320 458.67 337.78 458.67 341.33 458.67ZM277.33 309.33C271.45 309.33 266.67 304.56 266.67 298.67C266.67 285.87 266.67 183.47 266.67 170.67C266.67 164.78 271.45 160 277.33 160C283.73 160 334.93 160 341.33 160C382.57 160 416 193.43 416 234.67C416 275.91 382.57 309.33 341.33 309.33C328.53 309.33 283.73 309.33 277.33 309.33ZM341.33 288C370.79 288 394.67 264.12 394.67 234.67C394.67 205.22 370.79 181.33 341.33 181.33C337.78 181.33 320 181.33 288 181.33L288 288C320 288 337.78 288 341.33 288Z" id="bFB2arfbc"></path><path d="M277.33 480C271.45 480 266.67 475.22 266.67 469.33C266.67 456.53 266.67 354.13 266.67 341.33C266.67 335.45 271.45 330.67 277.33 330.67C283.73 330.67 334.93 330.67 341.33 330.67C382.57 330.67 416 364.1 416 405.33C416 446.57 382.57 480 341.33 480C328.53 480 283.73 480 277.33 480ZM341.33 458.67C370.79 458.67 394.67 434.78 394.67 405.33C394.67 375.88 370.78 352 341.33 352C337.78 352 320 352 288 352L288 458.67C320 458.67 337.78 458.67 341.33 458.67Z" id="b9Y7DDyhU"></path><path d="M277.33 480C271.45 480 266.67 475.22 266.67 469.33C266.67 456.53 266.67 354.13 266.67 341.33C266.67 335.45 271.45 330.67 277.33 330.67C283.73 330.67 334.93 330.67 341.33 330.67C382.57 330.67 416 364.1 416 405.33C416 446.57 382.57 480 341.33 480C328.53 480 283.73 480 277.33 480ZM341.33 458.67C370.79 458.67 394.67 434.78 394.67 405.33C394.67 375.88 370.78 352 341.33 352C337.78 352 320 352 288 352L288 458.67C320 458.67 337.78 458.67 341.33 458.67Z" id="f1ADkLcrTV"></path><path d="M0 320C0 143.26 143.26 0 320 0C496.74 0 640 143.26 640 320C639.8 496.65 496.65 639.8 320 640C143.26 640 0 496.74 0 320ZM21.33 320C21.33 484.95 155.05 618.67 320 618.67C484.95 618.67 618.67 484.95 618.67 320C618.47 155.13 484.88 21.53 320 21.33C155.05 21.33 21.33 155.05 21.33 320Z" id="a2vajrsPg"></path><path d="M42.67 320C42.67 166.84 166.84 42.67 320 42.67C473.16 42.67 597.33 166.84 597.33 320C597.16 473.1 473.1 597.16 320 597.33C166.84 597.33 42.67 473.16 42.67 320ZM64 320C64 461.39 178.61 576 320 576C461.39 576 576 461.39 576 320C575.84 178.69 461.31 64.16 320 64C178.61 64 64 178.61 64 320Z" id="a2c4l37J7b"></path></defs><g><g><g><use xlink:href="#b1M1fAeUAH" opacity="1" fill="#ff0000" fill-opacity="1"></use><g><use xlink:href="#b1M1fAeUAH" opacity="1" fill-opacity="0" stroke="#000000" stroke-width="1" stroke-opacity="0"></use></g></g><g><use xlink:href="#h1UhMiXG4C" opacity="1" fill="#ffffff" fill-opacity="1"></use><g><use xlink:href="#h1UhMiXG4C" opacity="1" fill-opacity="0" stroke="#000000" stroke-width="1" stroke-opacity="0"></use></g></g><g><use xlink:href="#ek5yyOPpn" opacity="1" fill="#ffffff" fill-opacity="1"></use><g><use xlink:href="#ek5yyOPpn" opacity="1" fill-opacity="0" stroke="#000000" stroke-width="1" stroke-opacity="0"></use></g></g><g><use xlink:href="#cXL3kgtqC" opacity="1" fill="#ff0000" fill-opacity="1"></use><g><use xlink:href="#cXL3kgtqC" opacity="1" fill-opacity="0" stroke="#000000" stroke-width="1" stroke-opacity="0"></use></g></g><g><use xlink:href="#b6DVvDp93" opacity="1" fill="#ffffff" fill-opacity="1"></use><g><use xlink:href="#b6DVvDp93" opacity="1" fill-opacity="0" stroke="#000000" stroke-width="1" stroke-opacity="0"></use></g></g><g><use xlink:href="#c21V03uaJG" opacity="1" fill="#231f20" fill-opacity="1"></use><g><use xlink:href="#c21V03uaJG" opacity="1" fill-opacity="0" stroke="#000000" stroke-width="1" stroke-opacity="0"></use></g></g><g><use xlink:href="#gEwzJSaJ6" opacity="1" fill="#231f20" fill-opacity="1"></use><g><use xlink:href="#gEwzJSaJ6" opacity="1" fill-opacity="0" stroke="#000000" stroke-width="1" stroke-opacity="0"></use></g></g><g><use xlink:href="#bFB2arfbc" opacity="1" fill="#231f20" fill-opacity="1"></use><g><use xlink:href="#bFB2arfbc" opacity="1" fill-opacity="0" stroke="#000000" stroke-width="1" stroke-opacity="0"></use></g></g><g><use xlink:href="#b9Y7DDyhU" opacity="1" fill="#231f20" fill-opacity="1"></use><g><use xlink:href="#b9Y7DDyhU" opacity="1" fill-opacity="0" stroke="#000000" stroke-width="1" stroke-opacity="0"></use></g></g><g><use xlink:href="#f1ADkLcrTV" opacity="1" fill="#231f20" fill-opacity="1"></use><g><use xlink:href="#f1ADkLcrTV" opacity="1" fill-opacity="0" stroke="#000000" stroke-width="1" stroke-opacity="0"></use></g></g><g><use xlink:href="#a2vajrsPg" opacity="1" fill="#231f20" fill-opacity="1"></use><g><use xlink:href="#a2vajrsPg" opacity="1" fill-opacity="0" stroke="#000000" stroke-width="1" stroke-opacity="0"></use></g></g><g><use xlink:href="#a2c4l37J7b" opacity="1" fill="#231f20" fill-opacity="1"></use><g><use xlink:href="#a2c4l37J7b" opacity="1" fill-opacity="0" stroke="#000000" stroke-width="1" stroke-opacity="0"></use></g></g></g></g></svg>
